<?xml version="1.0" encoding="utf-8"?>
<!-- Generator: Adobe Illustrator 22.0.0, SVG Export Plug-In . SVG Version: 6.00 Build 0)  -->
<svg version="1.1" id="Capa_1" xmlns="http://www.w3.org/2000/svg" xmlns:xlink="http://www.w3.org/1999/xlink" x="0px" y="0px"
	 viewBox="0 0 412.2 206.3" style="enable-background:new 0 0 412.2 206.3;" xml:space="preserve">
<style type="text/css">
	.st0{fill:#ED0000;}
	.st1{fill:#FFD600;}
</style>
<path class="st0" d="M60.9,206.3h290.4c33.6,0,60.9-27.3,60.9-60.9V60.9c0-33.6-27.3-60.9-60.9-60.9H60.9C27.3,0,0,27.3,0,60.9v84.5
	C0,179.1,27.3,206.3,60.9,206.3z"/>
<g>
	<path class="st1" d="M359.9,142.1c0,0.8-0.6,1.4-1.4,1.4h-13.7c-0.8,0-1.4-0.6-1.4-1.4v-13.6c0-0.8,0.6-1.4,1.4-1.4h13.7
		c0.8,0,1.4,0.6,1.4,1.4V142.1z M359.9,118.9h-16.5c-4.5,0-8.2,3.7-8.2,8.2v16.4c0,4.5,3.7,8.2,8.2,8.2h16.5c4.5,0,8.2-3.7,8.2-8.2
		v-16.4C368.2,122.6,364.4,118.9,359.9,118.9"/>
	<path class="st1" d="M329.1,131.2v-4.1c0-4.5-3.7-8.2-8.2-8.2h-16.5c-4.5,0-8.2,3.7-8.2,8.2v16.5c0,4.5,3.7,8.2,8.2,8.2h16.5
		c4.5,0,8.2-3.7,8.2-8.2v-4.1h-8.2v2.7c0,0.8-0.6,1.4-1.4,1.4h-13.7c-0.8,0-1.4-0.6-1.4-1.4v-13.7c0-0.8,0.6-1.4,1.4-1.4h13.7
		c0.8,0,1.4,0.6,1.4,1.4v2.7H329.1z"/>
	<path class="st1" d="M266.7,127.1L266.7,127.1c-0.8,0-1.4,0.6-1.4,1.4v1.3c0,0.8,0.6,1.4,1.4,1.4c1.1,0,10.6,0,15.1,0
		c4.5,0,8.2,3.7,8.2,8.2v4.2c0,4.5-3.7,8.2-8.2,8.1h-16.5c-4.5,0-8.2-3.7-8.2-8.2v-2h8.2v0.6c0,0.8,0.6,1.4,1.4,1.4h13.6
		c0.8,0,1.4-0.6,1.4-1.4v-1.3c0-0.8-0.6-1.4-1.4-1.4h-15.1c-4.5,0-8.2-3.7-8.2-8.2V127c0-4.5,3.7-8.1,8.2-8.1h16.5
		c4.5,0,8.2,3.7,8.2,8.2v2h-8.2v-0.6c0-0.8-0.6-1.4-1.4-1.4H266.7z"/>
	<path class="st1" d="M242.7,143.5h-15.1c-0.8,0-1.4-0.6-1.4-1.4v-23.2H218v24.6c0,4.5,3.7,8.2,8.2,8.2h24.7v-32.8h-8.2V143.5z"/>
	<path class="st1" d="M211.8,131.2v-4.1c0-4.5-3.7-8.2-8.2-8.2h-16.5c-4.5,0-8.2,3.7-8.2,8.2v16.5c0,4.5,3.7,8.2,8.2,8.2h16.5
		c4.5,0,8.2-3.7,8.2-8.2v-4.1h-8.2v2.7c0,0.8-0.6,1.4-1.4,1.4h-13.7c-0.8,0-1.4-0.6-1.4-1.4v-13.7c0-0.8,0.6-1.4,1.4-1.4h13.7
		c0.8,0,1.4,0.6,1.4,1.4v2.7H211.8z"/>
	<path class="st1" d="M156.2,147.8v2.6c0,0.7-0.6,1.3-1.3,1.3H53.3c-0.7,0-1.3-0.6-1.3-1.3v-2.6c0-0.7,0.6-1.3,1.3-1.3h101.6
		C155.7,146.5,156.2,147.1,156.2,147.8"/>
	<path class="st1" d="M117.9,52.2c0,7.5-6.1,13.6-13.7,13.6c-7.6,0-13.7-6.1-13.7-13.6c0-7.5,6.1-13.6,13.7-13.6
		C111.7,38.5,117.9,44.6,117.9,52.2"/>
	<path class="st1" d="M70.2,104.9V95c0-1.7,1.4-3.1,3.1-3.1H135c1.7,0,3,1.4,3,3.1v9.9H70.2z M138.1,73.7H70.2
		c-10,0-18.2,8.1-18.2,18.1v31.4c0,10,8.2,18.1,18.2,18.1h6.1c-3.6-3.2-5.9-7.8-6.1-13v-5.3H138v5.3c0,5.2-0.5,9.8-4.2,13h6.2
		c10,0,16.2-8.1,16.2-18.1V91.8C156.2,81.9,148.1,73.7,138.1,73.7"/>
	<path class="st1" d="M226.2,88.1v-4.8c0-0.8,0.6-1.4,1.4-1.4h13.7c0.8,0,1.4,0.6,1.4,1.4v4.8H226.2z M242.7,73.7h-16.5
		c-4.5,0-8.2,3.7-8.2,8.2v24.6h8.2V96.3h16.5v10.3h8.2V81.9C250.9,77.4,247.2,73.7,242.7,73.7"/>
	<path class="st1" d="M257.1,90.1v8.2c0,4.5,3.7,8.2,8.2,8.2h16.5c4.5,0,8.2-3.7,8.2-8.2V73.7h-8.2V97c0,0.8-0.6,1.4-1.4,1.4h-13.7
		c-0.8,0-1.4-0.6-1.4-1.4v-6.8H257.1z"/>
	<path class="st1" d="M304.4,88.1v-4.8c0-0.8,0.6-1.4,1.4-1.4h13.7c0.8,0,1.4,0.6,1.4,1.4v4.8H304.4z M320.9,73.7h-16.5
		c-4.5,0-8.2,3.7-8.2,8.2v24.6h8.2V96.3h16.5v10.3h8.2V81.9C329.1,77.4,325.4,73.7,320.9,73.7"/>
	<path class="st1" d="M211.8,86v-4.1c0-4.5-3.7-8.2-8.2-8.2h-16.5c-4.5,0-8.2,3.7-8.2,8.2v16.5c0,4.5,3.7,8.2,8.2,8.2h16.5
		c4.5,0,8.2-3.7,8.2-8.2v-4.1h-8.2V97c0,0.8-0.6,1.4-1.4,1.4h-13.7c-0.8,0-1.4-0.6-1.4-1.4V83.3c0-0.8,0.6-1.4,1.4-1.4h13.7
		c0.8,0,1.4,0.6,1.4,1.4V86H211.8z"/>
</g>
</svg>
